<svg width="134" height="61" viewBox="0 0 134 61" fill="none" xmlns="http://www.w3.org/2000/svg">
<path d="M14.6017 5.12074C11.9315 5.12074 10.5964 6.57415 10.5964 9.48097V11.1034H18.0493V16.1734H10.7992V37.9746H4.46163V16.1734H0V11.1034H4.46163V9.37957C4.46163 6.47275 5.30664 4.19123 6.99665 2.53502C8.68667 0.845006 11.0696 0 14.1454 0C16.579 0 18.4887 0.490103 19.8745 1.47031L18.1 6.23615C17.0184 5.49254 15.8523 5.12074 14.6017 5.12074Z" fill="#F0E5D9"/>
<path d="M32.4086 14.8552C34.2338 12.016 37.4449 10.5964 42.0417 10.5964V16.6297C41.5009 16.5283 41.0108 16.4776 40.5714 16.4776C38.104 16.4776 36.1774 17.2043 34.7915 18.6577C33.4057 20.0774 32.7128 22.1392 32.7128 24.8432V37.9746H26.3753V10.9006H32.4086V14.8552Z" fill="#F0E5D9"/>
<path d="M90.6416 10.9006L80.6536 37.9746H74.5696L67.5729 19.3168L60.4749 37.9746H54.3908L44.4535 10.9006H50.4362L57.5849 30.8765L65.0379 10.9006H70.3614L77.6623 30.9779L85.0138 10.9006H90.6416Z" fill="#F0E5D9"/>
<path d="M106.052 26.3642L101.337 30.8258V37.9746H94.999V0.354901H101.337V23.0687L114.468 10.9006H122.073L110.767 22.2575L123.138 37.9746H115.431L106.052 26.3642Z" fill="#F0E5D9"/>
<path d="M129.755 38.3295C128.605 38.3295 127.625 37.9408 126.814 37.1634C126.003 36.3522 125.597 35.3382 125.597 34.1214C125.597 32.8707 125.986 31.8567 126.763 31.0793C127.574 30.3019 128.572 29.9132 129.755 29.9132C130.938 29.9132 131.918 30.3019 132.695 31.0793C133.506 31.8567 133.912 32.8707 133.912 34.1214C133.912 35.3382 133.506 36.3522 132.695 37.1634C131.884 37.9408 130.904 38.3295 129.755 38.3295Z" fill="#F0E5D9"/>
<path d="M56.2646 57.1203C55.2379 57.1203 54.3126 56.8985 53.4887 56.4549C52.6649 56.0112 52.0184 55.3965 51.5494 54.6106C51.0931 53.8121 50.865 52.9122 50.865 51.9108C50.865 50.9095 51.0931 50.0159 51.5494 49.2301C52.0184 48.4442 52.6649 47.8295 53.4887 47.3858C54.3126 46.9422 55.2379 46.7204 56.2646 46.7204C57.3039 46.7204 58.2356 46.9422 59.0594 47.3858C59.8833 47.8295 60.5234 48.4442 60.9797 49.2301C61.4487 50.0159 61.6832 50.9095 61.6832 51.9108C61.6832 52.9122 61.4487 53.8121 60.9797 54.6106C60.5234 55.3965 59.8833 56.0112 59.0594 56.4549C58.2356 56.8985 57.3039 57.1203 56.2646 57.1203ZM56.2646 55.0859C57.1392 55.0859 57.8616 54.7944 58.432 54.2114C59.0024 53.6283 59.2876 52.8615 59.2876 51.9108C59.2876 50.9602 59.0024 50.1934 58.432 49.6103C57.8616 49.0272 57.1392 48.7357 56.2646 48.7357C55.39 48.7357 54.6675 49.0272 54.0971 49.6103C53.5394 50.1934 53.2606 50.9602 53.2606 51.9108C53.2606 52.8615 53.5394 53.6283 54.0971 54.2114C54.6675 54.7944 55.39 55.0859 56.2646 55.0859Z" fill="#8BB326"/>
<path d="M66.2183 48.3174C66.9028 47.2527 68.1069 46.7204 69.8307 46.7204V48.9829C69.6279 48.9449 69.4441 48.9258 69.2793 48.9258C68.354 48.9258 67.6316 49.1984 67.1119 49.7434C66.5922 50.2757 66.3324 51.0489 66.3324 52.0629V56.9872H63.9558V46.8345H66.2183V48.3174Z" fill="#8BB326"/>
<path d="M81.8306 46.8345V55.4472C81.8306 59.0216 80.0054 60.8088 76.355 60.8088C75.379 60.8088 74.4537 60.682 73.5792 60.4285C72.7046 60.1877 71.9821 59.8328 71.4117 59.3638L72.4764 57.5766C72.9201 57.9442 73.4778 58.2357 74.1495 58.4512C74.834 58.6793 75.5248 58.7934 76.2219 58.7934C77.3373 58.7934 78.1549 58.5399 78.6745 58.0329C79.1942 57.5259 79.4541 56.7527 79.4541 55.7134V55.181C79.0485 55.6246 78.5541 55.9605 77.9711 56.1887C77.388 56.4168 76.7479 56.5309 76.0508 56.5309C75.0875 56.5309 74.2129 56.3281 73.4271 55.9225C72.6539 55.5042 72.0391 54.9212 71.5828 54.1733C71.1392 53.4255 70.9174 52.5699 70.9174 51.6066C70.9174 50.6433 71.1392 49.7941 71.5828 49.0589C72.0391 48.3111 72.6539 47.7344 73.4271 47.3288C74.2129 46.9232 75.0875 46.7204 76.0508 46.7204C76.786 46.7204 77.4514 46.8408 78.0471 47.0816C78.6555 47.3224 79.1625 47.69 79.5681 48.1844V46.8345H81.8306ZM76.412 54.5156C77.312 54.5156 78.0471 54.2494 78.6175 53.717C79.2006 53.172 79.4921 52.4685 79.4921 51.6066C79.4921 50.7574 79.2006 50.0666 78.6175 49.5343C78.0471 49.0019 77.312 48.7357 76.412 48.7357C75.4994 48.7357 74.7516 49.0019 74.1686 49.5343C73.5982 50.0666 73.313 50.7574 73.313 51.6066C73.313 52.4685 73.5982 53.172 74.1686 53.717C74.7516 54.2494 75.4994 54.5156 76.412 54.5156Z" fill="#8BB326"/>
<path d="M88.8337 46.7204C90.3293 46.7204 91.4701 47.0816 92.256 47.8041C93.0545 48.5139 93.4538 49.5913 93.4538 51.0363V56.9872H91.2103V55.7514C90.9187 56.195 90.5005 56.5372 89.9554 56.7781C89.4231 57.0062 88.7766 57.1203 88.0161 57.1203C87.2556 57.1203 86.5902 56.9935 86.0198 56.74C85.4494 56.4739 85.0058 56.1126 84.6889 55.6563C84.3847 55.1873 84.2326 54.6613 84.2326 54.0783C84.2326 53.1657 84.5685 52.4368 85.2403 51.8918C85.9248 51.3341 86.9958 51.0553 88.4534 51.0553H91.0772V50.9032C91.0772 50.1934 90.8617 49.6483 90.4307 49.2681C90.0125 48.8878 89.3851 48.6977 88.5485 48.6977C87.9781 48.6977 87.4141 48.7864 86.8564 48.9639C86.3113 49.1413 85.8487 49.3885 85.4684 49.7054L84.5368 47.9752C85.0692 47.5696 85.7093 47.2591 86.4571 47.0436C87.2049 46.8281 87.9971 46.7204 88.8337 46.7204ZM88.5105 55.3901C89.1062 55.3901 89.6322 55.2571 90.0885 54.9909C90.5575 54.712 90.8871 54.3191 91.0772 53.8121V52.6333H88.6245C87.2556 52.6333 86.5712 53.0833 86.5712 53.9832C86.5712 54.4142 86.7423 54.7564 87.0845 55.0099C87.4268 55.2634 87.9021 55.3901 88.5105 55.3901Z" fill="#8BB326"/>
<path d="M102.265 46.7204C103.545 46.7204 104.572 47.0943 105.345 47.8421C106.118 48.59 106.504 49.699 106.504 51.1693V56.9872H104.128V51.4735C104.128 50.5863 103.919 49.9208 103.5 49.4772C103.082 49.0209 102.486 48.7928 101.713 48.7928C100.839 48.7928 100.148 49.0589 99.6409 49.5913C99.1339 50.111 98.8804 50.8651 98.8804 51.8538V56.9872H96.5038V46.8345H98.7663V48.1463C99.1592 47.6774 99.6536 47.3224 100.249 47.0816C100.845 46.8408 101.517 46.7204 102.265 46.7204Z" fill="#8BB326"/>
<path d="M109.519 46.8345H111.896V56.9872H109.519V46.8345ZM110.717 45.1613C110.286 45.1613 109.925 45.0283 109.633 44.7621C109.342 44.4832 109.196 44.141 109.196 43.7354C109.196 43.3298 109.342 42.9939 109.633 42.7277C109.925 42.4489 110.286 42.3094 110.717 42.3094C111.148 42.3094 111.509 42.4425 111.801 42.7087C112.092 42.9622 112.238 43.2854 112.238 43.6784C112.238 44.0966 112.092 44.4515 111.801 44.7431C111.522 45.0219 111.161 45.1613 110.717 45.1613Z" fill="#8BB326"/>
<path d="M119.673 57.1203C118.621 57.1203 117.677 56.8985 116.84 56.4549C116.004 56.0112 115.351 55.3965 114.882 54.6106C114.413 53.8121 114.179 52.9122 114.179 51.9108C114.179 50.9095 114.413 50.0159 114.882 49.2301C115.351 48.4442 115.997 47.8295 116.821 47.3858C117.658 46.9422 118.609 46.7204 119.673 46.7204C120.675 46.7204 121.549 46.9232 122.297 47.3288C123.057 47.7344 123.628 48.3174 124.008 49.0779L122.183 50.1427C121.891 49.6737 121.524 49.3251 121.08 49.097C120.649 48.8561 120.174 48.7357 119.654 48.7357C118.767 48.7357 118.032 49.0272 117.449 49.6103C116.866 50.1807 116.574 50.9475 116.574 51.9108C116.574 52.8741 116.859 53.6473 117.43 54.2304C118.013 54.8008 118.754 55.0859 119.654 55.0859C120.174 55.0859 120.649 54.9719 121.08 54.7437C121.524 54.5029 121.891 54.148 122.183 53.679L124.008 54.7437C123.615 55.5042 123.038 56.0936 122.278 56.5119C121.53 56.9175 120.662 57.1203 119.673 57.1203Z" fill="#8BB326"/>
</svg>
