<svg width="26" height="32" viewBox="0 0 26 32" fill="none" xmlns="http://www.w3.org/2000/svg">
<g clip-path="url(#clip0)">
<path fill-rule="evenodd" clip-rule="evenodd" d="M12.1043 0.278259C10.5739 0.278259 9.32174 0.695651 8.48696 1.53043C7.65217 2.36522 7.09565 3.47826 6.81739 4.5913C6.53913 5.42609 6.4 6.12174 6.4 6.95652H2.78261C1.25217 6.95652 0 8.20869 0 9.73913L0.13913 27.8261C0.13913 30.1913 1.94783 32 4.31304 32H20.8696C23.2348 32 25.0435 30.1913 25.0435 27.8261V9.73913C25.0435 8.20869 23.7913 6.95652 22.2609 6.95652H17.8087C17.6696 6.12174 17.6696 5.42609 17.3913 4.73043C17.113 3.61739 16.5565 2.36522 15.7217 1.66956C14.7478 0.834781 13.6348 0.278259 12.1043 0.278259ZM15.8609 9.04348V12.6609C15.8609 13.2174 16.2783 13.6348 16.9739 13.6348C17.5304 13.6348 17.9478 13.2174 17.9478 12.5217V11.4087V8.90435H22.2609C22.6783 8.90435 22.9565 9.18261 22.9565 9.6L22.8174 27.687C22.8174 28.8 21.8435 29.7739 20.7304 29.7739H4.31304C3.2 29.7739 2.22609 28.8 2.22609 27.687L2.08696 9.73913C2.08696 9.32174 2.36522 9.04348 2.78261 9.04348H6.26087V12.6609C6.26087 13.2174 6.67826 13.7739 7.23478 13.7739C7.7913 13.7739 8.34783 13.2174 8.34783 12.6609V11.5478V9.04348H15.8609ZM15.7217 6.95652C15.7217 6.4 15.5826 5.84348 15.4435 5.28695C15.1652 4.31304 14.887 3.61739 14.3304 3.2C13.7739 2.78261 13.2174 2.50435 12.1043 2.50435C10.9913 2.50435 10.2957 2.78261 9.87826 3.2C9.32174 3.61739 9.04348 4.31304 8.76522 5.28695C8.62609 5.84348 8.48696 6.4 8.48696 6.95652H15.7217Z" fill="#F0E5D9"/>
</g>
<defs>
<clipPath id="clip0">
<rect width="25.0435" height="32" fill="white"/>
</clipPath>
</defs>
</svg>
