<svg width="18" height="18" viewBox="0 0 18 18" fill="none" xmlns="http://www.w3.org/2000/svg">
<path d="M8.99945 1.32056C6.91368 1.32056 6.65214 1.3294 5.83299 1.36677C5.01554 1.40409 4.45726 1.5339 3.96873 1.72376C3.4637 1.92003 3.03541 2.18263 2.60845 2.60958C2.1815 3.03654 1.9189 3.46483 1.72263 3.96986C1.53277 4.45836 1.40296 5.01664 1.36564 5.83409C1.32827 6.65324 1.31946 6.91477 1.31946 9.00055C1.31946 11.0863 1.32827 11.3478 1.36564 12.167C1.40296 12.9844 1.53277 13.5427 1.72263 14.0312C1.9189 14.5362 2.1815 14.9645 2.60845 15.3915C3.03541 15.8185 3.4637 16.0811 3.96873 16.2773C4.45726 16.4672 5.01554 16.597 5.83299 16.6343C6.65214 16.6717 6.91368 16.6805 8.99945 16.6805C11.0852 16.6805 11.3467 16.6717 12.1659 16.6343C12.9833 16.597 13.5416 16.4672 14.0301 16.2773C14.5351 16.0811 14.9634 15.8185 15.3904 15.3915C15.8174 14.9645 16.08 14.5362 16.2762 14.0312C16.4661 13.5427 16.5959 12.9844 16.6332 12.167C16.6706 11.3478 16.6794 11.0863 16.6794 9.00055C16.6794 6.91477 16.6706 6.65324 16.6332 5.83409C16.5959 5.01664 16.4661 4.45836 16.2762 3.96986C16.08 3.46483 15.8174 3.03654 15.3904 2.60958C14.9634 2.18263 14.5351 1.92003 14.0301 1.72376C13.5416 1.5339 12.9833 1.40409 12.1659 1.36677C11.3467 1.3294 11.0852 1.32056 8.99945 1.32056ZM8.99945 2.70436C11.0501 2.70436 11.293 2.71217 12.1028 2.74912C12.8516 2.78329 13.2582 2.9084 13.5289 3.01355C13.8873 3.15287 14.1432 3.31932 14.4119 3.58805C14.6807 3.85678 14.8471 4.11265 14.9864 4.4711C15.0916 4.74172 15.2167 5.14837 15.2508 5.89716C15.2878 6.70698 15.2956 6.94989 15.2956 9.00055C15.2956 11.0512 15.2878 11.2941 15.2508 12.1039C15.2167 12.8527 15.0916 13.2593 14.9864 13.53C14.8471 13.8884 14.6807 14.1443 14.4119 14.413C14.1432 14.6818 13.8873 14.8482 13.5289 14.9875C13.2582 15.0927 12.8516 15.2178 12.1028 15.2519C11.2931 15.2889 11.0502 15.2967 8.99945 15.2967C6.94864 15.2967 6.70579 15.2889 5.89606 15.2519C5.14727 15.2178 4.74062 15.0927 4.47 14.9875C4.11152 14.8482 3.85569 14.6818 3.58692 14.413C3.31819 14.1443 3.15174 13.8884 3.01245 13.53C2.90728 13.2593 2.78216 12.8527 2.74799 12.1039C2.71104 11.2941 2.70323 11.0512 2.70323 9.00055C2.70323 6.94989 2.71104 6.70698 2.74799 5.89716C2.78216 5.14837 2.90728 4.74172 3.01245 4.4711C3.15174 4.11265 3.31819 3.85678 3.58692 3.58805C3.85569 3.31932 4.11152 3.15287 4.47 3.01355C4.74062 2.9084 5.14727 2.78329 5.89606 2.74912C6.70589 2.71217 6.9488 2.70436 8.99945 2.70436Z" fill="white"/>
<path d="M8.99969 11.5597C7.58582 11.5597 6.43968 10.4135 6.43968 8.99969C6.43968 7.58582 7.58582 6.43968 8.99969 6.43968C10.4135 6.43968 11.5597 7.58582 11.5597 8.99969C11.5597 10.4135 10.4135 11.5597 8.99969 11.5597ZM8.99969 5.05591C6.82158 5.05591 5.05591 6.82158 5.05591 8.99969C5.05591 11.1778 6.82158 12.9434 8.99969 12.9434C11.1778 12.9434 12.9434 11.1778 12.9434 8.99969C12.9434 6.82158 11.1778 5.05591 8.99969 5.05591Z" fill="white"/>
<path d="M14.0204 4.90083C14.0204 5.40982 13.6078 5.82241 13.0988 5.82241C12.5899 5.82241 12.1772 5.40982 12.1772 4.90083C12.1772 4.39184 12.5899 3.97925 13.0988 3.97925C13.6078 3.97925 14.0204 4.39184 14.0204 4.90083Z" fill="white"/>
</svg>
