<svg width="18" height="18" viewBox="0 0 18 18" fill="none" xmlns="http://www.w3.org/2000/svg">
<path d="M8.99998 17.625C7.34998 17.625 5.77498 17.175 4.42498 16.275L1.42498 17.25C1.27498 17.325 1.12498 17.25 1.04998 17.175C0.974978 17.1 0.899978 16.95 0.974978 16.8L1.94998 13.95C0.974978 12.525 0.449978 10.8 0.449978 9.075C0.374978 4.275 4.27498 0.375 8.99998 0.375C13.725 0.375 17.625 4.275 17.625 9C17.625 13.725 13.725 17.625 8.99998 17.625ZM4.49998 15.525C4.57498 15.525 4.64998 15.525 4.72498 15.6C5.99998 16.425 7.49998 16.875 9.07498 16.875C13.425 16.875 16.95 13.35 16.95 9C16.95 4.65 13.35 1.125 8.99998 1.125C4.64998 1.125 1.12498 4.65 1.12498 9C1.12498 10.65 1.64998 12.3 2.62498 13.65C2.69998 13.725 2.69998 13.875 2.69998 14.025L1.87498 16.425L4.34998 15.675C4.42498 15.525 4.42498 15.525 4.49998 15.525ZM11.7 14.025C11.1 14.025 10.35 13.8 9.14998 13.35C7.12498 12.525 5.62498 10.65 4.94998 9.675L4.87498 9.6C4.49998 9 3.82498 7.95 3.82498 6.825C3.82498 5.55 4.49998 4.875 4.72498 4.575C5.02498 4.275 5.39998 4.125 5.84998 4.125C5.92498 4.125 5.99998 4.125 6.07498 4.125C6.52498 4.125 6.74998 4.275 6.97498 4.8L7.19998 5.25C7.42498 5.775 7.72498 6.45 7.72498 6.525C7.87498 6.825 7.87498 7.05 7.72498 7.275C7.64998 7.425 7.57498 7.575 7.42498 7.725C7.34998 7.8 7.27498 7.875 7.19998 7.95C7.12498 8.025 7.04998 8.1 6.97498 8.175C7.12498 8.25 7.04998 8.25 7.04998 8.25C7.42498 8.85 7.87498 9.375 8.32498 9.825C9.14998 10.5 9.74998 10.8 10.05 10.95H10.125C10.2 10.95 10.2 11.025 10.275 10.95C10.425 10.8 10.65 10.5 10.8 10.2L10.875 10.125C11.1 9.825 11.4 9.75 11.55 9.75C11.625 9.75 11.775 9.75 11.925 9.825C12.15 9.9 12.975 10.275 13.575 10.65L13.725 10.725C13.95 10.8 14.1 10.875 14.175 11.1C14.325 11.4 14.25 12.075 14.1 12.525C13.875 13.2 12.975 13.8 12.225 13.95C12.075 13.95 11.925 14.025 11.7 14.025ZM5.92498 4.875C5.69998 4.875 5.47498 4.95 5.32498 5.025C5.09998 5.25 4.57498 5.775 4.57498 6.75C4.57498 7.65 5.17498 8.625 5.47498 9L5.54998 9.075C6.67498 10.725 8.02498 11.925 9.44998 12.525C10.5 12.975 11.25 13.2 11.7 13.2C11.85 13.2 12 13.2 12.075 13.125C12.6 12.975 13.275 12.6 13.425 12.225C13.575 11.85 13.575 11.55 13.575 11.4C13.5 11.4 13.5 11.325 13.425 11.325L13.275 11.25C12.45 10.8 11.775 10.5 11.7 10.5C11.625 10.5 11.625 10.425 11.55 10.575L11.475 10.65C11.25 10.95 11.025 11.25 10.875 11.475C10.65 11.7 10.2 11.775 9.89998 11.625H9.82498C9.52498 11.475 8.77498 11.175 7.87498 10.425C7.34998 9.975 6.89998 9.375 6.44998 8.7C6.14998 8.25 6.44998 7.875 6.59998 7.725C6.59998 7.65 6.67498 7.5 6.74998 7.425C6.82498 7.35 6.82498 7.35 6.89998 7.275C7.04998 7.125 7.04998 7.125 7.12498 6.975C7.12498 6.975 7.12498 6.9 7.12498 6.825C7.04998 6.825 6.74998 6.075 6.52498 5.55L6.37498 5.1C6.29998 4.95 6.22498 4.875 6.22498 4.875H6.14998C5.99998 4.875 5.92498 4.875 5.92498 4.875Z" fill="white"/>
</svg>
